<svg xmlns="http://www.w3.org/2000/svg" width="332" height="300" viewBox="0 0 332 300">
    <g fill="none" fill-rule="evenodd">
        <g>
            <g>
                <g fill-rule="nonzero">
                    <g transform="translate(-549.000000, -210.000000) translate(550.000000, 210.000000) translate(36.031361, 0.000000)">
                        <path fill="#2F2E41" d="M13.979 85.05l-2.805 33.594c-.34 3.716-1.173 7.371-2.479 10.869-.593 1.237-.93 2.581-.991 3.952v25.195s-1.983 0-1.488 1.976c.496 1.976.992 5.435.992 5.435h7.436s-.495-1.483.992-1.977 0-4.446 0-4.446l7.932-29.641 11.898-24.702s6.941 22.232 8.428 24.702c0 0 5.454 27.665 6.445 30.135.992 2.47 1.487 2.47.992 3.458-.496.988-.496 1.976 0 2.47.495.495 9.915 0 9.915 0l-2.479-35.075-4.462-41.992L31.5 82.086 13.98 85.05z"/>
                        <path fill="#2F2E41" d="M12.661 162.118s-2.478-8.892-6.445-1.976C2.25 167.06 2.25 169.53 2.25 169.53s-6.445 9.386 2.48 8.398c8.923-.988 6.94-5.434 6.94-5.434s3.47-1.976 3.47-3.458c0-1.482-2.479-6.917-2.479-6.917zM52.818 161.13s2.479-8.892 6.445-1.976c3.966 6.917 3.966 9.387 3.966 9.387s6.445 9.386-2.479 8.398c-8.924-.988-6.94-5.434-6.94-5.434s-3.47-1.976-3.47-3.458c0-1.482 2.478-6.917 2.478-6.917z"/>
                        <path fill="#FFB9B9" d="M29.517 18.357s.992 6.422-1.983 7.904c-2.974 1.482 6.445 6.917 8.924 6.917 2.479 0 6.94-4.94 6.94-4.94s-2.478-7.411-1.983-8.893l-11.898-.988z"/>
                        <ellipse cx="34.971" cy="12.923" fill="#FBBEBE" rx="10.411" ry="10.375"/>
                        <path fill="#E8E6F5" d="M55.297 34.166l-12.394-7.483s-7.051 7.977-14.68-.916L15.14 29.225l1.983 33.594S14.15 76.158 15.14 78.628c.992 2.47-2.479 3.458-1.487 3.952.991.494 0 3.952 0 3.952s19.335 9.88 40.652 2.47l-1.983-6.422c.549-1.707.174-3.575-.991-4.94 0 0 1.983-2.964-.496-5.434 0 0 .991-4.447-1.487-6.423l-.496-6.916 1.487-3.458 4.958-21.243z"/>
                        <path fill="#000" d="M27.862 25.999s-.416.31-.517 2.37c-.101 2.06-1.55 6.692-1.55 6.692s6.49-5.2 9.176-4.789L27.86 26z" opacity=".1"/>
                        <path fill="#F8F7FF" d="M27.862 25.383s-3.006-.828-3.107 1.232c-.101 2.06 1.04 7.827 1.04 7.827s5.786-4.944 8.471-4.53l-6.404-4.53z"/>
                        <path fill="#000" d="M42.53 25.342l-8.635 5.084s7.706 5.557 8.634 6.587c.93 1.03 1.76-9.14 1.76-9.14l-1.76-2.531z" opacity=".1"/>
                        <path fill="#F8F7FF" d="M42.84 24.722l-8.126 5.108s6.393 4.884 7.329 5.914c.936 1.03 2.246-8.446 2.246-8.446l-1.449-2.576z"/>
                        <path fill="#8D91D9" d="M30.155 31.251s2.741 3.244 2.689 3.912c-.053.668-.157 2.265-.157 2.265l-2.064 4.176s-1.138 5.2-1.138 6.282c0 1.082-1.809 10.44-1.809 10.44l-2.168 14.415-2.737 18.897 2.793 4.789 3.306-2.785 4.39-33.67.931-6.636s.982-11.944.982-13.18c0-1.235-.566-4.478-.566-4.478s.67-3.09 3.46-3.81c2.79-.721-.206-.154-.206-.154l-1.603-1.288-1.396.568s-3.88-1.187-4.707.257z"/>
                        <path fill="#2F2E41" d="M29.643 8.105s-1.242 2.677 3.723 1.606c0 0 1.862 1.071 1.862-.535 0 0 2.482 2.677 3.103 1.07.62-1.605 1.862.536 1.862.536l1.241-2.677 1.241 1.606h4.344S48.261-.995 33.366.075C18.472 1.145 25.8 18.11 25.8 18.11s.12-3.045 1.361-1.44c1.241 1.607 2.483-8.565 2.483-8.565z"/>
                        <path fill="#FFB9B9" d="M59.759 53.927l.495 10.374s1.983 19.267-1.983 27.666v4.446s-.991 11.362-5.949 10.868c-4.957-.494 1.488-16.302 1.488-16.302l-.992-21.738-.992-12.35 7.933-2.964z"/>
                        <path fill="#E8E6F5" d="M49.843 34.66l4.946-.801c3.562 3.41 5.99 7.829 6.953 12.657 1.487 7.905 1.983 9.387 1.983 9.387l-11.899 2.964-6.444-12.35 4.461-11.857z"/>
                    </g>
                    <g>
                        <path fill="#FBBEBE" d="M2.003 18.836s-4.507 18.836 1.002 18.836c5.51 0 18.53-21.314 18.53-21.314s13.523-6.94 8.014-9.418c-5.509-2.479-12.52 3.965-12.52 3.965L8.937 22.022l-.424-5.664-6.51 2.478z" transform="translate(-549.000000, -210.000000) translate(550.000000, 210.000000) translate(36.031361, 0.000000) translate(5.612516, 30.137566)"/>
                        <path fill="#E8E6F5" d="M12.52 2.974L9.517 0s-6.01 3.47-6.511 6.94C2.505 10.41 0 21.314 0 21.314l9.265.744 3.005-4.461.25-14.623z" transform="translate(-549.000000, -210.000000) translate(550.000000, 210.000000) translate(36.031361, 0.000000) translate(5.612516, 30.137566)"/>
                    </g>
                    <path fill="#FBBEBE" d="M49.964 50.795c5.59.016 9.022-7.281 9.022-7.281s10.457-10.53 4.86-12.939c-5.598-2.41-9.45 7.66-9.45 7.66l-5.858 7.9c-2.777 3.096-2.301 4.649 1.426 4.66z" transform="translate(-549.000000, -210.000000) translate(550.000000, 210.000000) translate(36.031361, 0.000000) translate(56.126646, 40.498842) rotate(52.000000) translate(-56.126646, -40.498842)"/>
                </g>
                <g>
                    <g transform="translate(-549.000000, -210.000000) translate(550.000000, 210.000000) translate(0.000000, 37.000000) translate(0.000000, 10.546149)">
                        <rect width="328" height="221" y="2" fill="#F2F2FA" fill-rule="nonzero" stroke="#DBDBDB" rx="5.353"/>
                        <path fill="#87C9FB" d="M5.353 1h317.294C325.604 1 328 3.396 328 6.353v31.153H0V6.353C0 3.396 2.396 1 5.353 1z"/>
                        <rect width="328" height="225.454" x="2" fill="#F2F2FA" fill-rule="nonzero" stroke="#DBDBDB" rx="5.353"/>
                        <rect width="294.005" height="165.032" x="18.997" y="49.345" fill="#FFF" stroke="#DEDEDE" stroke-width=".902" rx="2.706"/>
                        <path fill="#D4D4D4" d="M60.972 49.962H61.972V215.10399999999998H60.972z"/>
                        <rect width="36.074" height="4.142" x="22.301" y="91.611" fill="#65617D" rx=".517"/>
                        <rect width="36.074" height="4.142" x="22.301" y="125.394" fill="#87C9FA" rx=".517"/>
                        <rect width="36.074" height="4.142" x="63.824" y="164.605" fill="#87C9FA" rx=".517"/>
                        <rect width="36.074" height="4.142" x="106" y="59" fill="#87C9FA" rx=".517"/>
                        <rect width="36.074" height="4.142" x="147.507" y="98.341" fill="#FFAAC4" rx=".517"/>
                        <rect width="36.074" height="4.142" x="147.507" y="190.341" fill="#FFAAC4" rx=".517"/>
                        <rect width="36.074" height="4.142" x="231.507" y="190.341" fill="#FFAAC4" rx=".517"/>
                        <rect width="36.074" height="4.142" x="232.358" y="98.341" fill="#59D9AE" rx=".517"/>
                        <rect width="36.074" height="4.142" x="106.117" y="125.394" fill="#59D9AE" rx=".517"/>
                        <rect width="36.074" height="4.142" x="188.898" y="157.875" fill="#59D9AE" rx=".517"/>
                        <rect width="36.074" height="4.142" x="232.358" y="91.611" fill="#59D9AE" rx=".517"/>
                        <path fill="#D4D4D4" d="M165.741 -64.619L166.259 -64.619 166.259 230.288 165.741 230.288z" transform="translate(166.000000, 82.834893) rotate(90.000000) translate(-166.000000, -82.834893)"/>
                        <path fill="#D4D4D4" d="M165.741 -31.161L166.259 -31.161 166.259 263.746 165.741 263.746z" transform="translate(166.000000, 116.292189) rotate(90.000000) translate(-166.000000, -116.292189)"/>
                        <path fill="#D4D4D4" d="M165.741 1.971L166.259 1.971 166.259 296.878 165.741 296.878z" transform="translate(166.000000, 149.424194) rotate(90.000000) translate(-166.000000, -149.424194)"/>
                        <path fill="#D4D4D4" d="M165.741 35.103L166.259 35.103 166.259 330.01 165.741 330.01z" transform="translate(166.000000, 182.556200) rotate(90.000000) translate(-166.000000, -182.556200)"/>
                        <path fill="#D4D4D4" d="M102.88 49.962H103.88V215.10399999999998H102.88zM144.787 49.962H145.787V215.10399999999998H144.787zM186.695 49.962H187.695V215.10399999999998H186.695zM228.603 49.962H229.603V215.10399999999998H228.603zM270.511 49.962H271.511V215.10399999999998H270.511z"/>
                        <rect width="81.167" height="4.142" x="63.824" y="157.875" fill="#87C9FA" rx=".517"/>
                        <rect width="81.167" height="4.142" x="147.507" y="91.611" fill="#87C9FA" rx=".517"/>
                        <rect width="90" height="4.142" x="190" y="59" fill="#59D9AE" rx=".517"/>
                    </g>
                    <g>
                        <path fill="#87C9FB" d="M5.353 10.546h317.294c2.957 0 5.353 2.397 5.353 5.353v31.153H0V15.899c0-2.956 2.396-5.353 5.353-5.353z" transform="translate(-549.000000, -210.000000) translate(550.000000, 210.000000) translate(0.000000, 37.000000) translate(2.000000, 0.000000)"/>
                        <g fill="#FFF" fill-rule="nonzero" transform="translate(-549.000000, -210.000000) translate(550.000000, 210.000000) translate(0.000000, 37.000000) translate(2.000000, 0.000000) translate(86.492343, 15.648438)">
                            <circle cx="5.671" cy="5.671" r="5.671"/>
                            <circle cx="149.344" cy="5.671" r="5.671"/>
                        </g>
                    </g>
                </g>
                <g fill-rule="nonzero" transform="translate(-549.000000, -210.000000) translate(550.000000, 210.000000) translate(252.031361, 118.000000)">
                    <ellipse cx="38.377" cy="174.754" fill="#EFF5FA" rx="38.377" ry="7.246"/>
                    <g transform="translate(3.509427, -0.010739)">
                        <path fill="#FBBEBE" d="M27.067 174.885L22.263 174.885 20.006 153.507 27.737 153.507 27.485 174.352zM47 173.552L43.453 172.755 41.798 153.507 49.53 153.507 48.684 171.152z"/>
                        <path fill="#525163" d="M43.53 157.439c-.999-.006-1.83-.767-1.917-1.758l-4.52-48.024c-.026-.327-.298-.58-.626-.586-.33-.006-.61.238-.648.563l-6.49 48.115c-.116.964-.936 1.69-1.91 1.69h-5.658c-1.057-.002-1.915-.853-1.922-1.906-.014-3.414-.038 2.054-.061-1.385-.105-15.518.885-31.083 1.64-43.82.734-12.404.734-21.08 2.43-27.647l.059-.113 25.484-1.069.059.127c1.817 8.197 2.278 17.147 2.379 28.703.102 11.701-.668 25.548-1.703 42.135l-.198 3.177c-.064 1.01-.904 1.796-1.919 1.798h-4.48z"/>
                        <path fill="#525163" d="M31.136 171.176c-.147-.085-.31-.139-.478-.158-.405-.02-.709.344-1.056.554-.576.308-1.27.308-1.846 0-.563-.313-1.037-.765-1.375-1.313-.74-1.087-.885-2.172-1.192-3.364l3.224-.607c.587-.135 1.153-.347 1.684-.631v-.298-.431c-.596.178-1.86.751-2.16.83-.97.22-1.955.375-2.947.465-.153-.303-.375-.566-.553-.864-.361-.6-.59-1.268-.672-1.962-.007-.274-.061-.545-.158-.802-.107-.272-.388-.437-.679-.398-.104.03-.203.078-.29.143-.901.621-1.6 1.492-2.01 2.505-.607 1.503-.519 3.192-.755 4.798-.181 1.202-.553 2.395-.488 3.61-.01.072.013.144.06.199.05.054.119.085.191.084.672.148 1.444.276 1.99-.14.545-.416.623-1.203.729-1.887.142-.913.42-1.8.825-2.63.833 1.016 1.27 2.298 1.23 3.61 0 .724-.091 1.546.407 2.074.244.235.542.407.867.501.662.231 1.35.38 2.047.446 1.257.12 2.537-.037 3.797-.195.398-.05.797-.1 1.192-.188.201-.03.392-.11.556-.23.182-.166.298-.39.327-.634.078-.716-.184-1.426-.707-1.922-.515-.486-1.11-.88-1.76-1.165z" transform="translate(26.496831, 168.872088) scale(-1, 1) translate(-26.496831, -168.872088)"/>
                        <path fill="#525163" d="M51.727 172.356c-.297-.192-.632-.31-.98-.345-.399 0-.764.205-1.134.363-.37.159-.803.256-1.151.052-.273-.21-.474-.508-.57-.848-.442-1.1-.775-2.247-1.16-3.369.09-.148.224-.264.38-.33.121-.035.247-.051.372-.046.49 0 1.98 0 2.771-.286.025-.336.052-.674.081-1.012-.612-.133-1.663.098-1.94.177-.453.12-.916.297-1.375.195-.318-.07-.62-.272-.93-.315-.147-.284-.307-.558-.459-.837-.387-.717-.507-1.552-.884-2.245-.115-.246-.347-.408-.607-.428-.275.042-.523.194-.691.425-.625.663-1.267 1.35-1.624 2.202-.153.385-.271.784-.353 1.192-.515 2.292-.762 4.64-.735 6.994.569.19 1.17.249 1.764.174.303-1.584.675-3.151 1.114-4.702.01-.059.04-.11.086-.146.096-.054.196.056.245.153.535.832.968 1.73 1.289 2.675.198.673.289 1.403.663 1.99.401.576.983.987 1.644 1.161.657.172 1.33.263 2.007.272l1.004.05c.544.068 1.095.022 1.622-.132.514-.187.98-.645 1.019-1.214.007-.426-.162-.835-.463-1.123-.3-.284-.638-.518-1.005-.697z" transform="translate(46.965454, 169.317464) scale(-1, 1) translate(-46.965454, -169.317464)"/>
                        <ellipse cx="37.892" cy="30.354" fill="#FFB9B9" rx="10.495" ry="10.461"/>
                        <path fill="#65617D" d="M23.907 82.568l-.034-10.646-2.082-9.358c-1.067-4.7.183-9.625 3.365-13.253 3.095-3.61 7.735-5.528 12.485-5.16.152.011.303.024.455.038 4.043.362 7.765 2.347 10.311 5.497 2.6 3.168 3.798 7.253 3.318 11.318L49.53 81.598l-25.623.97z"/>
                        <g>
                            <path fill="#FBBEBE" d="M9.639 58.647c5.565-.004 9.007-7.258 9.007-7.258s10.448-10.487 4.885-12.858c-5.563-2.37-9.434 7.637-9.434 7.637l-5.86 7.861c-2.775 3.082-2.308 4.621 1.402 4.618z" transform="translate(44.947124, 49.131743) translate(15.809081, 48.407769) scale(-1, -1) rotate(123.000000) translate(-15.809081, -48.407769)"/>
                            <path fill="#65617D" d="M10.852 46.339L4.558 24.677.125 5.8c-.395-1.68.16-3.44 1.449-4.592C2.862.056 4.677-.305 6.31.268c1.633.57 2.823 1.984 3.105 3.686l2.922 17.62 6.68 21.612c.302.93-.148 1.938-1.044 2.336l-4.496 2.007c-.247.11-.515.168-.786.168-.846 0-1.593-.551-1.839-1.358z" transform="translate(44.947124, 49.131743)"/>
                        </g>
                        <g>
                            <path fill="#FBBEBE" d="M9.893 56.496c5.564-.004 9.006-7.26 9.006-7.26s10.447-10.489 4.885-12.86c-5.562-2.37-9.433 7.639-9.433 7.639l-5.86 7.863c-2.775 3.082-2.307 4.621 1.402 4.618z" transform="translate(14.965599, 30.039818) scale(-1, -1) translate(-14.965599, -30.039818) translate(16.062620, 46.254925) rotate(133.000000) translate(-16.062620, -46.254925)"/>
                            <path fill="#65617D" d="M10.852 46.339l-1.437-26.28L.125 5.8c-.395-1.68.16-3.44 1.449-4.592C2.862.056 4.677-.305 6.31.268c1.633.57 2.823 1.984 3.105 3.686l7.779 13.002 1.823 26.23c.302.93-.148 1.938-1.044 2.336l-4.496 2.007c-.247.11-.515.168-.786.168-.846 0-1.593-.551-1.839-1.358z" transform="translate(14.965599, 30.039818) scale(-1, -1) translate(-14.965599, -30.039818)"/>
                        </g>
                        <path fill="#464353" d="M38.107 18.791c-2.916-1.26-6.727.308-7.904 3.25-.732 1.832-.509 3.898-.105 5.828.404 1.93.98 3.857.918 5.828-.062 1.97-.914 4.062-2.668 4.974-1.048.545-2.274.605-3.41.93-1.136.325-2.309 1.085-2.472 2.252-.248 1.765 1.9 3.11 1.886 4.892-.015 1.888-2.383 3.01-2.69 4.873-.107 1.11.366 2.195 1.252 2.875.879.658 1.878 1.14 2.941 1.42 8.182 2.606 16.894 3.1 25.32 1.437 1.675-.333 3.398-.783 4.699-1.885 1.3-1.102 2.045-3.03 1.297-4.56-1.121-2.294-4.68-2.425-5.92-4.656-.745-1.339-.402-2.982-.246-4.504.405-3.931 1.338-8.524.359-12.353-.886-3.46-2.808-7.93-5.555-10.222-1.972-1.644-5.736-.895-8.255-.388l.553.01z"/>
                    </g>
                </g>
            </g>
        </g>
    </g>
</svg>
