<svg xmlns="http://www.w3.org/2000/svg" width="141.882" height="30" viewBox="0 0 141.882 30">
    <defs>
        <style>
            .cls-1,.cls-6{fill:#fff}.cls-1{stroke:#707070}.cls-2{clip-path:url(#clip-path)}.cls-3{fill:#00a0df}.cls-4{fill:#ffd200}.cls-5{fill:#0b3254}
        </style>
        <clipPath id="clip-path">
            <path id="Rectangle_4262" d="M0 0h141.882v30H0z" class="cls-1" data-name="Rectangle 4262"/>
        </clipPath>
    </defs>
    <g id="Group_3546" data-name="Group 3546" transform="translate(-20 -25)">
        <g id="Mask_Group_2457" class="cls-2" data-name="Mask Group 2457" transform="translate(20 25)">
            <g id="_20190315_TC_Yaanimail_LOGO_HORIZONTAL-01" data-name="20190315_TC_Yaanimail_LOGO_HORIZONTAL-01" transform="translate(0 .142)">
                <g id="Group_2092" data-name="Group 2092">
                    <path id="Path_8068" d="M170.138 306.829a14.855 14.855 0 1 0-9.128 19.2 1.971 1.971 0 1 0-1.307-3.718s-.392.156-.665.232a11.035 11.035 0 0 1-3.355.362 10.937 10.937 0 1 1 10.406-6.256.919.919 0 0 1-1.208.431.953.953 0 0 1-.425-1.248 9.134 9.134 0 1 0-3.005 3.58 5.106 5.106 0 0 0 8.468-1.74 14.9 14.9 0 0 0 .22-10.839zm-10.2 8.792a5.229 5.229 0 1 1-.09-7.395 5.238 5.238 0 0 1 .086 7.395z" class="cls-3" data-name="Path 8068" transform="translate(-141.337 -297.112)"/>
                    <path id="Path_8069" d="M206.144 361.984a3.6 3.6 0 1 0 5.094-.062 3.608 3.608 0 0 0-5.094.062" class="cls-4" data-name="Path 8069" transform="translate(-193.866 -349.643)"/>
                    <path id="Path_8070" d="M216.574 372.377a1.664 1.664 0 1 0 2.353-.029 1.666 1.666 0 0 0-2.353.029" class="cls-5" data-name="Path 8070" transform="translate(-202.908 -358.682)"/>
                </g>
                <g id="Group_2093" data-name="Group 2093" transform="translate(32.041 5.299)">
                    <path id="Path_8071" d="M322.9 331.225h4.6l3.6 6.532 3.651-6.532h4.37l-6.183 10.257v7.35h-3.923v-7.35z" class="cls-5" data-name="Path 8071" transform="translate(-322.903 -330.504)"/>
                    <path id="Path_8072" d="M407.516 370.078a3.511 3.511 0 0 1-3.328 1.938c-3.626 0-6.133-2.756-6.133-6.556 0-3.675 2.359-6.506 6.01-6.506a3.542 3.542 0 0 1 3.427 1.789v-1.416h3.651v10.132c0 1.142.074 1.938.1 2.21h-3.626a10.678 10.678 0 0 1-.1-1.465v-.125zm-2.831-1.316c1.515 0 2.806-1.192 2.806-3.278 0-2.136-1.267-3.254-2.806-3.254-1.614 0-2.831 1.118-2.831 3.254-.001 2.037 1.266 3.278 2.83 3.278z" class="cls-5" data-name="Path 8072" transform="translate(-384.792 -353.339)"/>
                    <path id="Path_8073" d="M489.271 370.078a3.511 3.511 0 0 1-3.328 1.938c-3.626 0-6.135-2.756-6.135-6.556 0-3.675 2.359-6.506 6.01-6.506a3.542 3.542 0 0 1 3.427 1.789v-1.416h3.655v10.132c0 1.142.075 1.938.1 2.21h-3.63a10.689 10.689 0 0 1-.1-1.465zm-2.831-1.316c1.515 0 2.806-1.192 2.806-3.278 0-2.136-1.267-3.254-2.806-3.254-1.614 0-2.831 1.118-2.831 3.254-.001 2.037 1.266 3.278 2.831 3.278z" class="cls-5" data-name="Path 8073" transform="translate(-452.119 -353.339)"/>
                    <path id="Path_8074" d="M569.852 371.895h-3.776v-12.343h3.651v1.416a4.046 4.046 0 0 1 3.452-1.739c3.1 0 4.495 2.21 4.495 4.918v7.749H573.9v-7.1a1.912 1.912 0 0 0-2.011-2.136 2 2 0 0 0-2.037 2.16v7.078z" class="cls-5" data-name="Path 8074" transform="translate(-523.164 -353.566)"/>
                    <path id="Path_8075" d="M644.534 327.142a2.21 2.21 0 1 1-2.186 2.21 2.221 2.221 0 0 1 2.186-2.21zm-1.862 18.329v-12.344h3.775v12.343z" class="cls-5" data-name="Path 8075" transform="translate(-585.975 -327.142)"/>
                    <path id="Path_8076" d="M696.159 348.833v-11.672l-4.594 11.672h-3.179l-4.594-11.523v11.523h-3.725v-17.608h5.116l4.843 11.895 4.594-11.895h5.389v17.607h-3.849z" class="cls-3" data-name="Path 8076" transform="translate(-617.038 -330.504)"/>
                    <path id="Path_8077" d="M811.254 370.078a3.511 3.511 0 0 1-3.328 1.938c-3.626 0-6.135-2.756-6.135-6.556 0-3.675 2.359-6.506 6.01-6.506a3.542 3.542 0 0 1 3.427 1.789v-1.416h3.651v10.132c0 1.142.075 1.938.1 2.21h-3.626a10.678 10.678 0 0 1-.1-1.465zm-2.831-1.316c1.515 0 2.806-1.192 2.806-3.278 0-2.136-1.267-3.254-2.806-3.254-1.614 0-2.831 1.118-2.831 3.254 0 2.037 1.266 3.278 2.831 3.278z" class="cls-3" data-name="Path 8077" transform="translate(-717.282 -353.339)"/>
                    <path id="Path_8078" d="M889.827 327.142a2.21 2.21 0 1 1-2.186 2.21 2.221 2.221 0 0 1 2.186-2.21zm-1.864 18.329v-12.344h3.774v12.343z" class="cls-3" data-name="Path 8078" transform="translate(-787.982 -327.142)"/>
                    <path id="Path_8079" d="M923.948 347.1v-17.98h3.775v17.98z" class="cls-3" data-name="Path 8079" transform="translate(-817.881 -328.769)"/>
                </g>
                <g id="Group_2094" data-name="Group 2094" transform="translate(88.187 4.978)">
                    <path id="Path_8080" d="M643.55 330.29a2.484 2.484 0 1 1 2.484-2.484 2.487 2.487 0 0 1-2.484 2.484" class="cls-3" data-name="Path 8080" transform="translate(-641.066 -325.322)"/>
                    <path id="Path_8081" d="M648.534 334.206a1.416 1.416 0 1 1 1.416-1.416 1.418 1.418 0 0 1-1.416 1.416" class="cls-6" data-name="Path 8081" transform="translate(-646.05 -330.307)"/>
                    <path id="Path_8082" d="M650.836 336.014a.922.922 0 1 1 .922-.922.923.923 0 0 1-.922.922" class="cls-4" data-name="Path 8082" transform="translate(-648.352 -332.608)"/>
                    <path id="Path_8083" d="M653.572 337.393a.429.429 0 1 1-.429-.429.429.429 0 0 1 .429.429" class="cls-5" data-name="Path 8083" transform="translate(-650.658 -334.91)"/>
                </g>
            </g>
        </g>
    </g>
</svg>
